<svg version="1.1" id="Layer_1" xmlns="http://www.w3.org/2000/svg" xmlns:xlink="http://www.w3.org/1999/xlink" x="0px" y="0px"
	 width="100%" viewBox="0 0 1024 1024" enable-background="new 0 0 1024 1024" xml:space="preserve">
<path fill="#FFFFFF" opacity="1.000000" stroke="none" 
	d="
M1025.000000,348.000000 
	C1025.000000,574.000000 1025.000000,799.500000 1025.000000,1025.000000 
	C683.666687,1025.000000 342.333344,1025.000000 1.000000,1025.000000 
	C1.000000,683.666687 1.000000,342.333344 1.000000,1.000000 
	C342.333344,1.000000 683.666687,1.000000 1025.000000,1.000000 
	C1025.000000,116.500000 1025.000000,232.000000 1025.000000,348.000000 
M65.027542,349.924011 
	C65.073875,364.613312 65.120201,379.302612 65.026115,394.920776 
	C65.072609,412.610901 65.119102,430.300995 65.026833,448.920258 
	C65.072968,469.943665 65.119095,490.967072 65.028282,512.919922 
	C65.073898,533.276611 65.119507,553.633240 65.030502,574.920471 
	C65.074654,591.277100 65.118797,607.633667 65.030937,624.921143 
	C65.074768,639.611389 65.118599,654.301575 65.033127,669.922913 
	C65.073624,681.945801 65.114128,693.968750 65.030525,706.922546 
	C65.071609,722.612976 65.112686,738.303406 65.031006,754.922241 
	C65.086456,763.670044 65.141907,772.417847 65.085114,782.072083 
	C65.085114,841.647705 65.085114,901.223267 65.085114,960.744812 
	C364.026764,960.744812 662.280029,960.744812 961.000366,960.744812 
	C961.000366,959.051880 961.001343,957.589294 961.000061,956.126709 
	C960.947388,897.464783 960.894592,838.802917 961.019165,779.202698 
	C960.961548,770.799744 960.903870,762.396790 960.956604,753.063293 
	C960.916870,741.372314 960.877075,729.681335 960.952881,717.060486 
	C960.914429,701.038147 960.875977,685.015869 960.956482,668.063477 
	C960.915955,654.372314 960.875427,640.681213 960.952759,626.060852 
	C960.912964,609.371033 960.873230,592.681213 960.954407,575.062012 
	C960.912415,558.703979 960.870361,542.345886 960.950073,525.059265 
	C960.909973,502.369141 960.869934,479.679047 960.953552,456.060486 
	C960.915649,431.371155 960.877686,406.681793 960.964050,381.063324 
	C960.919678,372.373444 960.875305,363.683563 960.960938,354.065369 
	C960.917908,342.041443 960.874817,330.017548 960.962524,317.065369 
	C960.919861,301.040985 960.877258,285.016632 960.964050,268.064026 
	C960.920837,260.030426 960.877686,251.996841 960.971741,243.040100 
	C960.971741,183.804764 960.971741,124.569435 960.971741,65.187813 
	C959.562317,65.101250 958.752686,65.008133 957.943054,65.007996 
	C903.136353,64.998474 848.329712,64.990585 793.523010,65.031914 
	C792.315857,65.032822 791.109070,65.602768 789.064331,65.941887 
	C786.812256,65.626755 784.560181,65.036247 782.308044,65.035713 
	C602.489746,64.993057 422.671478,64.992699 242.853226,65.034332 
	C240.267960,65.034927 237.682846,65.603477 234.586395,65.207771 
	C233.760147,65.137230 232.933899,65.005058 232.107635,65.004929 
	C177.625031,64.996422 123.142426,64.996857 68.659821,65.011917 
	C67.549675,65.012222 66.439583,65.193474 64.999290,65.319107 
	C64.999290,67.411156 64.999290,69.216766 64.999290,71.022377 
	C64.999290,115.341560 64.986755,159.660751 65.006920,203.979935 
	C65.012985,217.305527 65.110077,230.631104 65.032387,244.890961 
	C65.076859,253.258057 65.121323,261.625153 65.022743,270.921112 
	C65.071419,286.945282 65.120087,302.969421 65.028084,319.922638 
	C65.074120,329.613525 65.120148,339.304443 65.027542,349.924011 
z"/>
<path fill="#2F8BF1" opacity="1.000000" stroke="none" 
	d="
M65.165794,269.992249 
	C65.121323,261.625153 65.076859,253.258057 65.356331,244.112823 
	C66.776924,236.218292 67.873573,229.101883 69.356689,222.153992 
	C71.369568,222.548340 72.995949,222.971848 74.622383,222.972000 
	C366.822144,223.001068 659.021912,223.001953 951.221680,222.958054 
	C953.157837,222.957764 955.093872,222.323624 957.310852,222.255096 
	C958.672668,229.670914 959.753601,236.817078 960.834473,243.963242 
	C960.877686,251.996841 960.920837,260.030426 960.441956,268.530701 
	C783.407837,268.998260 606.895813,268.994324 430.383820,269.055878 
	C428.220093,269.056641 426.056671,269.898468 423.519714,270.281586 
	C394.351074,258.843628 364.573608,254.819031 334.060455,260.222198 
	C320.499084,262.623627 307.359894,267.409271 293.749512,270.795197 
	C291.500244,270.318420 289.530518,270.020691 287.560699,270.019989 
	C213.429062,269.993774 139.297424,269.994843 65.165794,269.992249 
z"/>
<path fill="#69D4FB" opacity="1.000000" stroke="none" 
	d="
M960.837280,717.990356 
	C960.877075,729.681335 960.916870,741.372314 960.447998,753.530762 
	C661.677551,753.996826 363.415649,753.995361 65.153770,753.993835 
	C65.112686,738.303406 65.071609,722.612976 65.548859,706.460266 
	C74.552116,705.998657 83.037041,705.999817 91.521965,705.999817 
	C161.231552,706.000000 230.941162,706.020813 300.650604,705.902710 
	C302.808441,705.899048 304.963898,704.454834 307.409485,703.890869 
	C324.389771,715.393738 342.697662,721.090454 362.965515,721.069214 
	C469.223358,720.957886 575.481384,721.029297 681.739319,720.988037 
	C686.356140,720.986267 691.024048,720.844421 695.578308,720.165161 
	C703.732544,718.948853 711.818298,717.273193 720.163208,716.109924 
	C722.957397,716.953552 725.520630,717.931335 728.084717,717.933899 
	C805.668884,718.011719 883.253052,717.993530 960.837280,717.990356 
z"/>
<path fill="#6DD9FC" opacity="1.000000" stroke="none" 
	d="
M65.092392,754.458008 
	C363.415649,753.995361 661.677551,753.996826 960.392822,753.996094 
	C960.903870,762.396790 960.961548,770.799744 960.682251,779.953125 
	C960.182068,782.803101 960.018738,784.902649 959.454468,786.940735 
	C956.933777,786.586243 954.813965,786.036560 952.694092,786.036316 
	C659.627563,785.998108 366.561035,785.997620 73.494492,786.041504 
	C71.044518,786.041870 68.594635,786.668091 66.096893,786.614136 
	C65.765175,784.539368 65.481270,782.852478 65.197357,781.165649 
	C65.141907,772.417847 65.086456,763.670044 65.092392,754.458008 
z"/>
<path fill="#3592F2" opacity="1.000000" stroke="none" 
	d="
M423.893097,270.347717 
	C426.056671,269.898468 428.220093,269.056641 430.383820,269.055878 
	C606.895813,268.994324 783.407837,268.998260 960.377258,268.994812 
	C960.877258,285.016632 960.919861,301.040985 960.440125,317.531494 
	C802.949829,317.997070 645.981934,317.996490 488.707336,317.851929 
	C485.379517,314.402679 482.448547,311.009552 479.322235,307.807068 
	C463.422272,291.519684 444.642731,279.470703 423.893097,270.347717 
z"/>
<path fill="#44A5F4" opacity="1.000000" stroke="none" 
	d="
M960.839722,381.992462 
	C960.877686,406.681793 960.915649,431.371155 960.435242,456.528076 
	C889.345276,456.996674 818.773560,456.987366 748.201965,457.042694 
	C745.769409,457.044586 743.337341,457.693176 740.545288,458.000916 
	C721.041626,449.250793 701.045166,444.536774 679.919617,444.798065 
	C678.392273,444.816986 675.968445,443.548096 675.436340,442.265900 
	C665.856323,419.180786 651.466980,399.495605 634.092529,382.148926 
	C636.913757,382.060211 639.244690,382.005096 641.575562,382.004913 
	C747.996948,381.997772 854.418335,381.995392 960.839722,381.992462 
z"/>
<path fill="#2079EE" opacity="1.000000" stroke="none" 
	d="
M235.097656,65.906960 
	C237.682846,65.603477 240.267960,65.034927 242.853226,65.034332 
	C422.671478,64.992699 602.489746,64.993057 782.308044,65.035713 
	C784.560181,65.036247 786.812256,65.626755 789.923889,65.945755 
	C791.943970,65.980423 793.124084,65.884995 794.262146,66.060921 
	C811.789368,68.770119 828.887085,73.244659 844.976135,80.673508 
	C854.346985,85.000320 863.026367,90.824776 871.819885,96.324448 
	C869.264648,97.115685 866.906433,97.944504 864.548035,97.945099 
	C630.292725,98.003906 396.037384,98.000031 161.782074,97.999489 
	C160.282593,97.999481 158.636856,98.376564 157.325226,97.878098 
	C156.040512,97.389870 155.096039,96.006302 154.303986,94.858215 
	C164.226486,89.548653 173.602386,83.855415 183.523331,79.366806 
	C199.882278,71.965408 217.145874,67.480919 235.097656,65.906960 
z"/>
<path fill="#24A7F2" opacity="1.000000" stroke="none" 
	d="
M959.855408,787.002136 
	C960.018738,784.902649 960.182068,782.803101 960.593567,780.422302 
	C960.894592,838.802917 960.947388,897.464783 961.000061,956.126709 
	C961.001343,957.589294 961.000366,959.051880 961.000366,960.744812 
	C662.280029,960.744812 364.026764,960.744812 65.085114,960.744812 
	C65.085114,901.223267 65.085114,841.647705 65.141235,781.618896 
	C65.481270,782.852478 65.765175,784.539368 66.101822,787.021606 
	C66.433754,789.597412 66.596100,791.405701 67.011162,793.153870 
	C69.615692,804.123596 72.276497,815.080078 74.943840,826.424072 
	C76.308266,830.706299 77.330528,834.752258 79.054131,838.473267 
	C82.430618,845.762451 86.198112,852.870544 89.879608,860.407104 
	C101.753853,882.082397 116.747360,900.730408 136.284821,916.017944 
	C150.677444,928.001343 166.199997,937.454956 183.128036,944.643860 
	C205.325241,954.070312 228.498718,959.830444 252.547531,959.865356 
	C426.294678,960.117859 600.042358,960.031799 773.789856,959.899170 
	C781.525940,959.893311 789.300110,958.666748 796.988403,957.542908 
	C813.955811,955.062500 830.275391,950.175659 845.813354,942.941528 
	C861.711487,935.539856 876.914978,926.943909 890.329834,914.925415 
	C891.236633,914.207031 891.820190,913.616455 892.454346,913.086426 
	C910.332336,898.142883 924.975647,880.545715 936.188721,859.698242 
	C941.260681,848.278442 946.170898,837.159973 951.342041,825.785767 
	C954.353821,812.687378 957.104614,799.844727 959.855408,787.002136 
z"/>
<path fill="#3A97F2" opacity="1.000000" stroke="none" 
	d="
M489.014038,317.995941 
	C645.981934,317.996490 802.949829,317.997070 960.374756,317.995605 
	C960.874817,330.017548 960.917908,342.041443 960.439087,354.531494 
	C840.993103,354.998413 722.068909,354.992859 603.144775,355.044434 
	C600.711914,355.045471 598.279297,355.710175 595.496338,356.024048 
	C566.594116,342.226501 536.653992,335.948914 504.695618,339.156738 
	C504.118652,339.014038 503.783997,338.953674 503.321228,338.556976 
	C498.466766,331.479065 493.740417,324.737488 489.014038,317.995941 
z"/>
<path fill="#4BADF5" opacity="1.000000" stroke="none" 
	d="
M740.905090,458.040344 
	C743.337341,457.693176 745.769409,457.044586 748.201965,457.042694 
	C818.773560,456.987366 889.345276,456.996674 960.373413,456.992279 
	C960.869934,479.679047 960.909973,502.369141 960.433167,525.527161 
	C911.269897,525.996094 862.623535,525.982422 813.977234,526.050232 
	C811.955750,526.053040 809.935364,526.818665 807.657227,526.984314 
	C799.561401,509.648315 789.418457,493.977875 774.989685,481.914124 
	C764.386658,473.048981 752.319702,465.934814 740.905090,458.040344 
z"/>
<path fill="#53B6F6" opacity="1.000000" stroke="none" 
	d="
M65.165115,573.989929 
	C65.119507,553.633240 65.073898,533.276611 65.553322,512.458374 
	C115.820267,511.964386 165.562180,511.932037 215.569580,512.095032 
	C219.476807,517.631042 222.922867,523.118347 226.795700,528.285767 
	C240.207825,546.181274 257.139069,560.153687 275.806427,572.203369 
	C273.363861,573.015503 271.149689,573.935486 268.934570,573.937866 
	C201.011475,574.010620 133.088287,573.993286 65.165115,573.989929 
z"/>
<path fill="#59BEF8" opacity="1.000000" stroke="none" 
	d="
M65.097809,574.455200 
	C133.088287,573.993286 201.011475,574.010620 268.934570,573.937866 
	C271.149689,573.935486 273.363861,573.015503 276.135742,572.253601 
	C278.064941,572.687561 279.436829,573.391235 280.834045,574.309875 
	C280.859314,574.524902 280.872192,574.957764 280.607239,575.164429 
	C271.452301,590.360168 266.510071,606.474182 266.051575,623.992310 
	C198.797638,623.993042 131.980301,623.991699 65.162949,623.990295 
	C65.118797,607.633667 65.074654,591.277100 65.097809,574.455200 
z"/>
<path fill="#63CCFA" opacity="1.000000" stroke="none" 
	d="
M960.895081,717.525391 
	C883.253052,717.993530 805.668884,718.011719 728.084717,717.933899 
	C725.520630,717.931335 722.957397,716.953552 720.407593,715.850525 
	C731.273560,710.423706 742.491516,706.246643 752.891174,700.570435 
	C768.021729,692.312012 780.043152,680.141357 791.166565,667.278564 
	C793.375244,668.088257 795.392456,668.939758 797.410767,668.942383 
	C851.886292,669.012512 906.361938,668.995667 960.837524,668.993530 
	C960.875977,685.015869 960.914429,701.038147 960.895081,717.525391 
z"/>
<path fill="#3592F2" opacity="1.000000" stroke="none" 
	d="
M65.094269,270.456665 
	C139.297424,269.994843 213.429062,269.993774 287.560699,270.019989 
	C289.530518,270.020691 291.500244,270.318420 293.532043,271.066620 
	C282.836975,277.786041 271.317322,282.907837 261.523102,290.312042 
	C250.252472,298.832367 240.507492,309.370850 229.625076,319.022217 
	C174.489761,319.005646 119.829262,318.999634 65.168762,318.993591 
	C65.120087,302.969421 65.071419,286.945282 65.094269,270.456665 
z"/>
<path fill="#3E9CF3" opacity="1.000000" stroke="none" 
	d="
M595.846558,356.065277 
	C598.279297,355.710175 600.711914,355.045471 603.144775,355.044434 
	C722.068909,354.992859 840.993103,354.998413 960.374146,354.995636 
	C960.875305,363.683563 960.919678,372.373444 960.901855,381.527893 
	C854.418335,381.995392 747.996948,381.997772 641.575562,382.004913 
	C639.244690,382.005096 636.913757,382.060211 633.795593,382.029846 
	C620.621033,373.335114 608.233826,364.700195 595.846558,356.065277 
z"/>
<path fill="#5FC6F9" opacity="1.000000" stroke="none" 
	d="
M65.096939,624.455688 
	C131.980301,623.991699 198.797638,623.993042 266.152588,624.449951 
	C266.305603,640.044495 270.149719,654.243408 275.819031,667.963867 
	C272.760803,668.325867 270.141754,668.955383 267.522217,668.957397 
	C200.068985,669.008667 132.615707,668.994568 65.162437,668.991821 
	C65.118599,654.301575 65.074768,639.611389 65.096939,624.455688 
z"/>
<path fill="#4BADF5" opacity="1.000000" stroke="none" 
	d="
M215.304077,511.899658 
	C165.562180,511.932037 115.820267,511.964386 65.621796,511.993622 
	C65.119095,490.967072 65.072968,469.943665 65.553001,448.458588 
	C108.415413,447.990082 150.751648,447.983276 193.278503,448.237335 
	C193.683823,449.333099 193.898544,450.167938 194.056976,451.417999 
	C194.008759,452.499451 193.911179,453.186920 194.040207,453.828857 
	C198.149582,474.275055 204.006393,494.084534 215.304077,511.899658 
z"/>
<path fill="#63CCFA" opacity="1.000000" stroke="none" 
	d="
M65.097778,669.457397 
	C132.615707,668.994568 200.068985,669.008667 267.522217,668.957397 
	C270.141754,668.955383 272.760803,668.325867 276.061981,668.185303 
	C284.298981,682.360474 294.040070,694.458069 307.120483,703.682251 
	C304.963898,704.454834 302.808441,705.899048 300.650604,705.902710 
	C230.941162,706.020813 161.231552,706.000000 91.521965,705.999817 
	C83.037041,705.999817 74.552116,705.998657 65.610916,705.994812 
	C65.114128,693.968750 65.073624,681.945801 65.097778,669.457397 
z"/>
<path fill="#24A7F2" opacity="1.000000" stroke="none" 
	d="
M872.016846,95.975388 
	C863.026367,90.824776 854.346985,85.000320 844.976135,80.673508 
	C828.887085,73.244659 811.789368,68.770119 794.262146,66.060921 
	C793.124084,65.884995 791.943970,65.980423 790.342773,65.928452 
	C791.109070,65.602768 792.315857,65.032822 793.523010,65.031914 
	C848.329712,64.990585 903.136353,64.998474 957.943054,65.007996 
	C958.752686,65.008133 959.562317,65.101250 960.971741,65.187813 
	C960.971741,124.569435 960.971741,183.804764 960.903137,243.501678 
	C959.753601,236.817078 958.672668,229.670914 957.302856,221.831512 
	C954.803528,212.333527 953.085205,203.365265 950.230408,194.774689 
	C947.851990,187.617706 944.139954,180.903946 940.975708,173.634247 
	C938.340088,168.304367 936.166626,163.052826 933.061951,158.426163 
	C927.681213,150.407700 921.723694,142.776199 915.852173,134.679626 
	C914.666138,133.568008 913.503784,132.881165 912.626770,131.930939 
	C906.178101,124.943542 900.283752,117.346909 893.230042,111.044250 
	C886.802551,105.301041 879.136780,100.943634 872.016846,95.975388 
z"/>
<path fill="#24A7F2" opacity="1.000000" stroke="none" 
	d="
M234.842026,65.557365 
	C217.145874,67.480919 199.882278,71.965408 183.523331,79.366806 
	C173.602386,83.855415 164.226486,89.548653 153.988831,94.988724 
	C143.694931,102.904068 133.664017,110.133118 124.469376,118.303307 
	C118.655357,123.469536 114.089165,130.040054 108.665573,136.134277 
	C98.869980,147.434189 90.827637,159.507889 84.708603,173.191666 
	C83.041725,176.411392 81.525826,179.372650 80.288254,182.445969 
	C75.141174,195.227905 70.268845,208.098129 68.970230,221.985474 
	C67.873573,229.101883 66.776924,236.218292 65.422867,243.645691 
	C65.110077,230.631104 65.012985,217.305527 65.006920,203.979935 
	C64.986755,159.660751 64.999290,115.341560 64.999290,71.022377 
	C64.999290,69.216766 64.999290,67.411156 64.999290,65.319107 
	C66.439583,65.193474 67.549675,65.012222 68.659821,65.011917 
	C123.142426,64.996857 177.625031,64.996422 232.107635,65.004929 
	C232.933899,65.005058 233.760147,65.137230 234.842026,65.557365 
z"/>
<path fill="#59BEF8" opacity="1.000000" stroke="none" 
	d="
M960.833435,575.991394 
	C960.873230,592.681213 960.912964,609.371033 960.437805,626.528687 
	C910.671509,626.996155 861.420227,626.995667 812.179871,626.620728 
	C818.029175,609.639221 819.510193,592.439941 819.570190,575.005981 
	C822.436584,575.347046 824.889404,575.955261 827.342957,575.958252 
	C871.839722,576.012695 916.336609,575.994263 960.833435,575.991394 
z"/>
<path fill="#53B6F6" opacity="1.000000" stroke="none" 
	d="
M960.893921,575.526733 
	C916.336609,575.994263 871.839722,576.012695 827.342957,575.958252 
	C824.889404,575.955261 822.436584,575.347046 819.501587,574.575745 
	C818.293823,569.424255 817.567993,564.717712 816.906006,559.598938 
	C813.951416,548.534180 810.932922,537.881531 807.914429,527.228882 
	C809.935364,526.818665 811.955750,526.053040 813.977234,526.050232 
	C862.623535,525.982422 911.269897,525.996094 960.372314,525.991455 
	C960.870361,542.345886 960.912415,558.703979 960.893921,575.526733 
z"/>
<path fill="#44A5F4" opacity="1.000000" stroke="none" 
	d="
M193.087891,447.976440 
	C150.751648,447.983276 108.415413,447.990082 65.622375,447.994019 
	C65.119102,430.300995 65.072609,412.610901 65.553246,394.458923 
	C109.002403,393.997192 151.924423,393.997284 194.882812,394.407593 
	C194.609482,396.618744 194.297562,398.419312 193.990448,400.220642 
	C191.284286,416.093750 191.725739,432.026398 193.087891,447.976440 
z"/>
<path fill="#5FC6F9" opacity="1.000000" stroke="none" 
	d="
M812.168884,626.995178 
	C861.420227,626.995667 910.671509,626.996155 960.378906,626.993286 
	C960.875427,640.681213 960.915955,654.372314 960.896973,668.528503 
	C906.361938,668.995667 851.886292,669.012512 797.410767,668.942383 
	C795.392456,668.939758 793.375244,668.088257 791.288818,666.965820 
	C800.320312,654.326416 806.981812,641.053711 812.168884,626.995178 
z"/>
<path fill="#3E9CF3" opacity="1.000000" stroke="none" 
	d="
M194.846466,393.997375 
	C151.924423,393.997284 109.002403,393.997192 65.623459,393.994507 
	C65.120201,379.302612 65.073875,364.613312 65.553955,349.461212 
	C111.392799,348.998962 156.705246,348.983002 202.017593,349.042480 
	C204.634689,349.045929 207.250977,349.663055 209.834976,350.345825 
	C205.387527,363.088409 200.972733,375.479736 196.334503,388.158203 
	C195.689529,390.296051 195.267990,392.146698 194.846466,393.997375 
z"/>
<path fill="#3A97F2" opacity="1.000000" stroke="none" 
	d="
M209.867630,349.994598 
	C207.250977,349.663055 204.634689,349.045929 202.017593,349.042480 
	C156.705246,348.983002 111.392799,348.998962 65.623276,348.996887 
	C65.120148,339.304443 65.074120,329.613525 65.098419,319.458130 
	C119.829262,318.999634 174.489761,319.005646 229.521271,319.347107 
	C223.217407,329.786591 216.542511,339.890594 209.867630,349.994598 
z"/>
<path fill="#2984F0" opacity="1.000000" stroke="none" 
	d="
M69.356689,222.153992 
	C70.268845,208.098129 75.141174,195.227905 80.288254,182.445969 
	C81.525826,179.372650 83.041725,176.411392 84.949295,173.496796 
	C88.028336,174.063309 90.587601,174.941299 93.147072,174.941864 
	C372.987274,175.003738 652.827515,175.002930 932.667725,174.958359 
	C935.451416,174.957916 938.234924,174.329254 941.018555,173.993896 
	C944.139954,180.903946 947.851990,187.617706 950.230408,194.774689 
	C953.085205,203.365265 954.803528,212.333527 957.021973,221.561859 
	C955.093872,222.323624 953.157837,222.957764 951.221680,222.958054 
	C659.021912,223.001953 366.822144,223.001068 74.622383,222.972000 
	C72.995949,222.971848 71.369568,222.548340 69.356689,222.153992 
z"/>
<path fill="#FEC501" opacity="1.000000" stroke="none" 
	d="
M209.834976,350.345825 
	C216.542511,339.890594 223.217407,329.786591 229.996094,319.357697 
	C240.507492,309.370850 250.252472,298.832367 261.523102,290.312042 
	C271.317322,282.907837 282.836975,277.786041 293.811584,271.384155 
	C307.359894,267.409271 320.499084,262.623627 334.060455,260.222198 
	C364.573608,254.819031 394.351074,258.843628 423.519714,270.281586 
	C444.642731,279.470703 463.422272,291.519684 479.322235,307.807068 
	C482.448547,311.009552 485.379517,314.402679 488.707336,317.851929 
	C493.740417,324.737488 498.466766,331.479065 502.887329,338.652954 
	C486.702179,341.097107 471.256226,344.730804 456.371643,350.771179 
	C434.636749,359.591492 415.936981,372.858124 398.752258,389.002838 
	C396.039307,388.624268 393.754913,388.043243 391.469452,388.039124 
	C358.650513,387.980103 325.831482,388.015381 293.012451,387.994080 
	C260.860962,387.973206 228.709457,387.913666 196.557938,387.871094 
	C200.972733,375.479736 205.387527,363.088409 209.834976,350.345825 
z"/>
<path fill="#F6FCFF" opacity="1.000000" stroke="none" 
	d="
M812.179871,626.620728 
	C806.981812,641.053711 800.320312,654.326416 791.097900,666.611938 
	C780.043152,680.141357 768.021729,692.312012 752.891174,700.570435 
	C742.491516,706.246643 731.273560,710.423706 720.177002,715.530151 
	C711.818298,717.273193 703.732544,718.948853 695.578308,720.165161 
	C691.024048,720.844421 686.356140,720.986267 681.739319,720.988037 
	C575.481384,721.029297 469.223358,720.957886 362.965515,721.069214 
	C342.697662,721.090454 324.389771,715.393738 307.409485,703.890808 
	C294.040070,694.458069 284.298981,682.360474 276.500916,668.160339 
	C270.149719,654.243408 266.305603,640.044495 266.589142,624.447876 
	C266.510071,606.474182 271.452301,590.360168 280.981384,575.207153 
	C286.624908,577.279114 291.543396,579.736877 296.648041,581.714050 
	C324.835663,592.631836 353.789246,596.570740 383.923920,592.153198 
	C406.603394,588.828430 427.641571,581.462891 447.109192,569.492859 
	C453.146667,565.780640 459.035889,561.827271 465.187683,558.332031 
	C467.575104,559.119812 469.767609,559.943726 471.960541,559.945007 
	C586.921021,560.011047 701.881592,560.007385 816.842102,560.011108 
	C817.567993,564.717712 818.293823,569.424255 819.088257,574.561096 
	C819.510193,592.439941 818.029175,609.639221 812.179871,626.620728 
z"/>
<path fill="#70DDFC" opacity="1.000000" stroke="none" 
	d="
M959.454468,786.940735 
	C957.104614,799.844727 954.353821,812.687378 950.982178,825.624268 
	C947.816772,825.145691 945.272339,824.071777 942.727600,824.071106 
	C656.312866,823.995544 369.898132,823.994141 83.483437,824.084534 
	C80.628311,824.085449 77.773598,825.360596 74.918686,826.040894 
	C72.276497,815.080078 69.615692,804.123596 67.011162,793.153870 
	C66.596100,791.405701 66.433754,789.597412 66.149643,787.409546 
	C68.594635,786.668091 71.044518,786.041870 73.494492,786.041504 
	C366.561035,785.997620 659.627563,785.998108 952.694092,786.036316 
	C954.813965,786.036560 956.933777,786.586243 959.454468,786.940735 
z"/>
<path fill="#EDF7FE" opacity="1.000000" stroke="none" 
	d="
M816.906006,559.598938 
	C701.881592,560.007385 586.921021,560.011047 471.960541,559.945007 
	C469.767609,559.943726 467.575104,559.119812 465.335754,558.033325 
	C468.352020,554.598877 471.458496,551.856873 474.470184,549.014465 
	C486.004272,538.128662 496.032837,526.028442 504.139465,512.354065 
	C510.938080,500.886078 516.845032,489.048462 520.276489,475.754700 
	C526.140686,457.301086 528.656738,438.664276 527.929504,419.645325 
	C527.703003,413.722107 526.702759,407.827332 526.029846,401.922577 
	C523.784058,382.216339 517.121704,363.931702 508.170288,346.377136 
	C506.985016,344.052795 506.010223,341.621094 504.937988,339.239105 
	C536.653992,335.948914 566.594116,342.226501 595.496338,356.024048 
	C608.233826,364.700195 620.621033,373.335114 633.305237,382.089050 
	C651.466980,399.495605 665.856323,419.180786 675.436340,442.265900 
	C675.968445,443.548096 678.392273,444.816986 679.919617,444.798065 
	C701.045166,444.536774 721.041626,449.250793 740.545288,458.000916 
	C752.319702,465.934814 764.386658,473.048981 774.989685,481.914124 
	C789.418457,493.977875 799.561401,509.648315 807.657227,526.984375 
	C810.932922,537.881531 813.951416,548.534180 816.906006,559.598938 
z"/>
<path fill="#237BEF" opacity="1.000000" stroke="none" 
	d="
M108.963287,135.980713 
	C114.089165,130.040054 118.655357,123.469536 124.469376,118.303307 
	C133.664017,110.133118 143.694931,102.904068 153.687103,95.146225 
	C155.096039,96.006302 156.040512,97.389870 157.325226,97.878098 
	C158.636856,98.376564 160.282593,97.999481 161.782074,97.999489 
	C396.037384,98.000031 630.292725,98.003906 864.548035,97.945099 
	C866.906433,97.944504 869.264648,97.115685 871.819885,96.324455 
	C879.136780,100.943634 886.802551,105.301041 893.230042,111.044250 
	C900.283752,117.346909 906.178101,124.943542 912.626770,131.930939 
	C913.503784,132.881165 914.666138,133.568008 915.846802,135.104263 
	C915.947571,140.900955 912.034241,138.918198 909.746155,138.918945 
	C645.143066,139.004929 380.540039,139.000015 115.936966,139.000000 
	C115.437088,139.000000 114.850197,139.171875 114.452187,138.970490 
	C112.594009,138.030319 110.787971,136.987091 108.963287,135.980713 
z"/>
<path fill="#78E7FE" opacity="1.000000" stroke="none" 
	d="
M936.026978,859.999634 
	C924.975647,880.545715 910.332336,898.142883 892.454346,913.086426 
	C891.820190,913.616455 891.236633,914.207031 890.252319,914.542969 
	C886.452148,913.544312 883.029480,912.097717 879.606140,912.096191 
	C635.205933,911.990601 390.805634,911.996765 146.405350,912.041199 
	C143.619354,912.041748 140.787582,912.467896 138.074509,913.108032 
	C137.224274,913.308594 136.693771,914.864319 136.016937,915.799805 
	C116.747360,900.730408 101.753853,882.082397 90.314842,860.345764 
	C93.293007,859.620667 95.911743,859.038940 98.530563,859.038574 
	C374.911621,858.997437 651.292664,858.997070 927.673706,859.041382 
	C930.458191,859.041870 933.242554,859.666443 936.026978,859.999634 
z"/>
<path fill="#7CEBFF" opacity="1.000000" stroke="none" 
	d="
M136.284805,916.017944 
	C136.693771,914.864319 137.224274,913.308594 138.074509,913.108032 
	C140.787582,912.467896 143.619354,912.041748 146.405350,912.041199 
	C390.805634,911.996765 635.205933,911.990601 879.606140,912.096191 
	C883.029480,912.097717 886.452148,913.544312 889.952576,914.698914 
	C876.914978,926.943909 861.711487,935.539856 845.813354,942.941528 
	C830.275391,950.175659 813.955811,955.062500 796.988403,957.542908 
	C789.300110,958.666748 781.525940,959.893311 773.789856,959.899170 
	C600.042358,960.031799 426.294678,960.117859 252.547531,959.865356 
	C228.498718,959.830444 205.325241,954.070312 183.128036,944.643860 
	C166.199997,937.454956 150.677444,928.001343 136.284805,916.017944 
z"/>
<path fill="#74E1FD" opacity="1.000000" stroke="none" 
	d="
M936.188721,859.698242 
	C933.242554,859.666443 930.458191,859.041870 927.673706,859.041382 
	C651.292664,858.997070 374.911621,858.997437 98.530563,859.038574 
	C95.911743,859.038940 93.293007,859.620667 90.238998,859.992310 
	C86.198112,852.870544 82.430618,845.762451 79.054131,838.473267 
	C77.330528,834.752258 76.308266,830.706299 74.943848,826.424072 
	C77.773598,825.360596 80.628311,824.085449 83.483437,824.084534 
	C369.898132,823.994141 656.312866,823.995544 942.727600,824.071106 
	C945.272339,824.071777 947.816772,825.145691 950.721252,825.880005 
	C946.170898,837.159973 941.260681,848.278442 936.188721,859.698242 
z"/>
<path fill="#FFF9DF" opacity="1.000000" stroke="none" 
	d="
M504.695618,339.156738 
	C506.010223,341.621094 506.985016,344.052795 508.170288,346.377136 
	C517.121704,363.931702 523.784058,382.216339 526.029846,401.922577 
	C526.702759,407.827332 527.703003,413.722107 527.929504,419.645325 
	C528.656738,438.664276 526.140686,457.301086 519.807861,475.754700 
	C464.360992,475.998932 409.659302,475.997864 354.927643,475.578918 
	C356.911316,467.106689 358.924988,459.052368 361.143250,450.684570 
	C363.282928,445.392761 364.873962,440.245850 367.215179,435.466400 
	C375.559418,418.432037 386.314606,403.011749 399.180298,389.068665 
	C415.936981,372.858124 434.636749,359.591492 456.371643,350.771179 
	C471.256226,344.730804 486.702179,341.097107 503.015472,338.989258 
	C503.783997,338.953674 504.118652,339.014038 504.695618,339.156738 
z"/>
<path fill="#FFDB01" opacity="1.000000" stroke="none" 
	d="
M360.938660,450.998016 
	C358.924988,459.052368 356.911316,467.106689 354.740723,475.929138 
	C351.161560,493.873047 351.516174,511.209595 353.090302,528.467163 
	C349.944885,529.036987 347.498688,529.432861 345.073914,529.932739 
	C342.640198,530.434448 340.202118,530.947388 337.810150,531.614014 
	C313.344482,538.432373 294.658966,553.023743 280.808746,574.094849 
	C279.436829,573.391235 278.064941,572.687561 276.363708,571.933716 
	C257.139069,560.153687 240.207825,546.181274 226.795700,528.285767 
	C222.922867,523.118347 219.476807,517.631042 215.569580,512.095032 
	C204.006393,494.084534 198.149582,474.275055 194.040207,453.828857 
	C193.911179,453.186920 194.008759,452.499451 194.518158,451.417053 
	C250.336624,450.999969 305.637634,450.998993 360.938660,450.998016 
z"/>
<path fill="#FFFCE8" opacity="1.000000" stroke="none" 
	d="
M280.834045,574.309875 
	C294.658966,553.023743 313.344482,538.432373 337.810150,531.614014 
	C340.202118,530.947388 342.640198,530.434448 345.073914,529.932739 
	C347.498688,529.432861 349.944885,529.036987 353.090302,528.467163 
	C351.516174,511.209595 351.161560,493.873047 354.770691,476.347046 
	C409.659302,475.997864 464.360992,475.998932 519.531372,476.000000 
	C516.845032,489.048462 510.938080,500.886078 504.139465,512.354065 
	C496.032837,526.028442 486.004272,538.128662 474.470184,549.014465 
	C471.458496,551.856873 468.352020,554.598877 465.140991,557.685608 
	C459.035889,561.827271 453.146667,565.780640 447.109192,569.492859 
	C427.641571,581.462891 406.603394,588.828430 383.923920,592.153198 
	C353.789246,596.570740 324.835663,592.631836 296.648041,581.714050 
	C291.543396,579.736877 286.624908,577.279114 281.246338,575.000488 
	C280.872192,574.957764 280.859314,574.524902 280.834045,574.309875 
z"/>
<path fill="#FFD100" opacity="1.000000" stroke="none" 
	d="
M361.143250,450.684570 
	C305.637634,450.998993 250.336624,450.999969 194.574432,451.001862 
	C193.898544,450.167938 193.683823,449.333099 193.278503,448.237335 
	C191.725739,432.026398 191.284286,416.093750 193.990448,400.220642 
	C194.297562,398.419312 194.609482,396.618744 194.882812,394.407593 
	C195.267990,392.146698 195.689529,390.296051 196.334503,388.158234 
	C228.709457,387.913666 260.860962,387.973206 293.012451,387.994080 
	C325.831482,388.015381 358.650513,387.980103 391.469452,388.039124 
	C393.754913,388.043243 396.039307,388.624268 398.752258,389.002838 
	C386.314606,403.011749 375.559418,418.432037 367.215179,435.466400 
	C364.873962,440.245850 363.282928,445.392761 361.143250,450.684570 
z"/>
<path fill="#257FEF" opacity="1.000000" stroke="none" 
	d="
M108.665573,136.134277 
	C110.787971,136.987091 112.594009,138.030319 114.452187,138.970490 
	C114.850197,139.171875 115.437088,139.000000 115.936966,139.000000 
	C380.540039,139.000015 645.143066,139.004929 909.746155,138.918945 
	C912.034241,138.918198 915.947571,140.900955 916.002686,135.407043 
	C921.723694,142.776199 927.681213,150.407700 933.061951,158.426163 
	C936.166626,163.052826 938.340088,168.304367 940.975647,173.634262 
	C938.234924,174.329254 935.451416,174.957916 932.667725,174.958359 
	C652.827515,175.002930 372.987274,175.003738 93.147072,174.941864 
	C90.587601,174.941299 88.028336,174.063309 85.228287,173.289856 
	C90.827637,159.507889 98.869980,147.434189 108.665573,136.134277 
z"/>
</svg>